<?xml version="1.0" encoding="UTF-8"?>
<svg version="1.1" xmlns="http://www.w3.org/2000/svg" width="454" height="446">
<path d="M0 0 C149.82 0 299.64 0 454 0 C454 147.18 454 294.36 454 446 C304.18 446 154.36 446 0 446 C0 298.82 0 151.64 0 0 Z " fill="rgba(0,0,0,0.0)" transform="translate(0,0)"/>
<path d="M0 0 C1.50856151 -0.00298657 1.50856151 -0.00298657 3.04759902 -0.00603348 C4.70954447 -0.00166422 4.70954447 -0.00166422 6.40506458 0.00279331 C7.57960738 0.00193889 8.75415019 0.00108446 9.96428519 0.00020415 C13.22977352 -0.00116099 16.49522241 0.001975 19.76070607 0.00698221 C23.28011362 0.01129226 26.79951927 0.00983989 30.31892872 0.00907993 C36.41832066 0.00855505 42.51770192 0.01169813 48.61709118 0.01731777 C57.43583259 0.0254376 66.25456883 0.02804849 75.07331357 0.02930576 C89.38041812 0.03149552 103.68751696 0.03815355 117.99461842 0.04760838 C131.89435771 0.05678446 145.79409546 0.06386433 159.69383717 0.06811619 C160.55031673 0.06837891 161.40679629 0.06864164 162.28922977 0.06891232 C166.58584631 0.07021734 170.88246286 0.07148105 175.17907941 0.07272422 C210.83561405 0.08309446 246.49214208 0.10071072 282.14867115 0.12304783 C281.18797572 1.24958757 280.22647097 2.37543718 279.26462269 3.50099277 C278.72927119 4.12802381 278.1939197 4.75505484 277.64234543 5.40108681 C276.07663036 7.20609903 274.45515203 8.91789774 272.7463274 10.58789158 C272.16560474 11.16087986 271.58488209 11.73386814 270.98656178 12.3242197 C269.80691724 13.47790947 268.62723002 14.6315556 267.44749928 15.7851572 C264.41848292 18.77392085 261.51443742 21.80666024 258.7385149 25.03320408 C254.25830347 30.22414308 249.35408434 34.96603202 244.4650774 39.76757908 C240.38678309 43.80162427 236.48797949 47.90998135 232.77171803 52.28125095 C232.23611256 52.88904392 231.70050709 53.49683689 231.14867115 54.12304783 C230.62328377 54.81111389 230.09789639 55.49917995 229.55658817 56.2080965 C226.18515962 58.8893025 223.12457519 58.66615907 218.99895191 58.6040659 C217.75950321 58.609202 217.75950321 58.609202 216.49501514 58.61444187 C213.71352764 58.62107032 210.9330005 58.59895869 208.15160084 58.57714939 C206.12862777 58.57592427 204.10565299 58.57645764 202.0826807 58.57861042 C196.65861978 58.57951454 191.23491088 58.55630896 185.81093311 58.52816868 C180.72379397 58.5054114 175.63674102 58.50431745 170.54955006 58.5014658 C155.66587701 58.48046531 140.78226966 58.42462081 125.89867115 58.37304783 C92.65117115 58.29054783 59.40367115 58.20804783 25.14867115 58.12304783 C25.14867115 146.23304783 25.14867115 234.34304783 25.14867115 325.12304783 C114.90867115 325.12304783 204.66867115 325.12304783 297.14867115 325.12304783 C296.59490233 269.14724614 296.59490233 269.14724614 295.88744068 213.1733408 C295.82420826 202.31860447 295.82420826 202.31860447 295.81245899 197.22830296 C295.79947289 193.69098731 295.74726831 190.15664683 295.67061329 186.62014866 C294.98607026 153.62704281 294.98607026 153.62704281 302.07620525 145.6807127 C304.9262651 143.11765583 307.89180797 141.14818251 311.14867115 139.12304783 C313.26603631 136.99743541 313.26603631 136.99743541 314.77367115 134.99804783 C318.20106273 130.94433089 321.9735793 127.27155744 325.74681568 123.54443455 C328.49225282 120.81964626 331.14152115 118.07263606 333.64867115 115.12304783 C337.11830939 111.04112048 340.91548187 107.32548454 344.72655201 103.56689548 C348.25207878 100.07204487 351.57570903 96.47058993 354.7463274 92.64648533 C356.14867115 91.12304783 356.14867115 91.12304783 359.14867115 89.12304783 C359.2402902 123.07740264 359.31074209 157.03172661 359.35293247 190.98617764 C359.3579351 194.99770293 359.36311241 199.00922798 359.36839771 203.02075291 C359.36944695 203.81935225 359.3704962 204.6179516 359.37157723 205.44075092 C359.38896738 218.359944 359.42049738 231.27906566 359.45728233 244.19821642 C359.49473049 257.46122062 359.51691518 270.7241875 359.52502513 283.9872424 C359.53050488 292.16676458 359.54779221 300.34608484 359.58033702 308.52554484 C359.6015328 314.13973108 359.60785979 319.75381341 359.60267666 325.36803672 C359.60012268 328.60390735 359.60615852 331.83935332 359.62549305 335.07517719 C359.64547452 338.59237342 359.64057968 342.10871459 359.62968922 345.62593174 C359.64134058 346.63666463 359.65299195 347.64739751 359.66499639 348.68875867 C359.57801523 359.12374829 356.38787215 368.47896982 349.14867115 376.12304783 C339.1357726 385.83735099 327.69584875 387.72819276 314.1689043 387.62425327 C312.79623501 387.6281549 311.42356977 387.63380221 310.05091393 387.64102417 C306.31186317 387.65567294 302.57323811 387.64566144 298.83420157 387.63128746 C294.78917339 387.62012097 290.74420218 387.63213884 286.69917774 387.64112949 C278.78855111 387.65502476 270.87808467 387.64753368 262.96746574 387.63245391 C253.74757187 387.61555051 244.52771741 387.61880946 235.30781282 387.62254799 C218.85417993 387.6284196 202.40062369 387.61428159 185.94701099 387.58960056 C169.99450782 387.56567404 154.04210702 387.55860025 138.08958912 387.56909275 C120.69986119 387.58051013 103.31018055 387.58242249 85.92045319 387.56799465 C84.06517133 387.56646888 82.20988946 387.56494852 80.35460758 387.56343365 C79.44186995 387.56267583 78.52913231 387.56191802 77.58873596 387.56113724 C71.16722846 387.55640137 64.74574213 387.55824085 58.32423496 387.56249905 C50.49650235 387.56743301 42.66886639 387.56140859 34.84115587 387.54160475 C30.85001207 387.53175491 26.85901522 387.52660265 22.86786366 387.53449726 C19.21003837 387.54158438 15.55250882 387.53467923 11.89472236 387.51689363 C9.95415752 387.51097108 8.01356479 387.51964323 6.07301319 387.52894014 C-6.16409949 387.4405905 -15.7806554 384.74656406 -24.82789135 376.27148533 C-31.41041145 369.24079364 -34.96814137 361.16680022 -34.98554993 351.53629208 C-34.99000777 350.39194112 -34.99446561 349.24759017 -34.99905854 348.06856191 C-34.99887418 346.81080343 -34.99868982 345.55304496 -34.99849987 344.25717258 C-35.0017998 342.9079117 -35.00552564 341.55865179 -35.00964135 340.20939314 C-35.01965484 336.49801896 -35.02337709 332.78666096 -35.02603066 329.07527518 C-35.02993564 325.07374653 -35.03951385 321.07223067 -35.04824352 317.07071018 C-35.06800242 307.40521094 -35.0780734 297.73971066 -35.08697131 288.07419628 C-35.09135514 283.5218721 -35.0967217 278.96954909 -35.10196018 274.41722584 C-35.11897186 259.28314486 -35.1334659 244.14906461 -35.14070892 229.01497555 C-35.1426188 225.08794625 -35.14453913 221.16091695 -35.14649487 217.23388767 C-35.14722048 215.76983287 -35.14722048 215.76983287 -35.14796074 214.2762012 C-35.15626055 198.46605121 -35.18159691 182.65597688 -35.21407554 166.84585993 C-35.24715279 150.61192534 -35.26515829 134.3780292 -35.26835316 118.14406073 C-35.27051764 109.03010943 -35.27925716 99.91626849 -35.30481434 90.80235004 C-35.32653041 83.04030238 -35.3345673 75.27839189 -35.32484756 67.51631729 C-35.32030548 63.55757249 -35.32218351 59.59911063 -35.341609 55.6404047 C-35.35926043 52.01181729 -35.35822736 48.38371882 -35.34271171 44.75512607 C-35.33921977 42.83005998 -35.35534722 40.90498865 -35.37231618 38.97999418 C-35.28281703 26.88116091 -31.5160038 18.19710084 -23.2614851 9.43554783 C-17.15323119 3.68660297 -8.39109256 -0.00365944 0 0 Z " fill="#E6E7E8" transform="translate(55.85132884979248,34.876952171325684)"/>
<path d="M0 0 C4.49531882 1.90325998 7.66809079 4.27064629 11.1875 7.625 C15.85109981 11.98875139 20.66727801 16.03730332 25.6875 19.9921875 C28.55535996 22.48218753 30.57896828 24.48590515 31.609375 28.19140625 C31.95148578 33.95977414 30.71420045 37.00707012 27.0625 41.5 C25.39820571 43.35442494 23.71042848 45.18803924 22 47 C20.49744749 48.66436586 18.99737186 50.33097175 17.5 52 C16.75363281 52.81855469 16.00726563 53.63710937 15.23828125 54.48046875 C12.97152842 57.03204917 10.82459913 59.65171532 8.6875 62.3125 C4.79679292 67.12665588 0.66999534 71.64924334 -3.55786133 76.16333008 C-6.67524726 79.51064243 -9.63559167 82.92986788 -12.5 86.5 C-15.84301959 90.6666621 -19.35115137 94.60419812 -23 98.5 C-27.45874444 103.26088994 -31.6379783 108.1646782 -35.72265625 113.25390625 C-38.66077451 116.79678299 -41.78231178 120.15441772 -44.91650391 123.52197266 C-47.88730066 126.73316873 -50.69968321 130.02636841 -53.4375 133.4375 C-57.28110057 138.21621628 -61.36960164 142.69157687 -65.55834961 147.16381836 C-68.67553945 150.51099327 -71.63573798 153.93005023 -74.5 157.5 C-77.84301959 161.6666621 -81.35115137 165.60419812 -85 169.5 C-89.45874444 174.26088994 -93.6379783 179.1646782 -97.72265625 184.25390625 C-100.66077451 187.79678299 -103.78231178 191.15441772 -106.91650391 194.52197266 C-109.88730066 197.73316873 -112.69968321 201.02636841 -115.4375 204.4375 C-119.28045479 209.21541338 -123.36831329 213.68994984 -127.55615234 218.16162109 C-131.47906854 222.37429105 -135.11911024 226.76413555 -138.72265625 231.25390625 C-141.66077451 234.79678299 -144.78231178 238.15441772 -147.91650391 241.52197266 C-150.88730066 244.73316873 -153.69968321 248.02636841 -156.4375 251.4375 C-179.74197042 280.36863535 -179.74197042 280.36863535 -193 283 C-203.48708578 283.90424925 -212.84564092 283.69951837 -221.51171875 277.08203125 C-230.16492145 269.59495694 -237.43767498 260.78604257 -244.6171875 251.91796875 C-247.20755848 248.74582593 -249.84682867 245.61956706 -252.5 242.5 C-256.62124182 237.65060094 -260.66991814 232.74838629 -264.6875 227.8125 C-267.26146697 224.68199964 -269.87584726 221.58841197 -272.5 218.5 C-278.78554206 211.09625171 -284.9626235 203.60807607 -291 196 C-291.556875 195.29875 -292.11375 194.5975 -292.6875 193.875 C-295.358905 190.05870715 -295.31210504 186.52552306 -295 182 C-293.21193348 177.52983371 -289.83564261 174.97832834 -286.23828125 171.953125 C-283.88945511 169.90353849 -281.73384951 167.73599564 -279.5625 165.5 C-267.70892857 153.64642857 -267.70892857 153.64642857 -261.3125 153.25 C-255.47921509 153.80411169 -252.69006529 157.00579208 -249.08984375 161.25390625 C-247.58754611 163.08338304 -246.09899257 164.92419479 -244.62109375 166.7734375 C-241.67847001 170.43430351 -238.59039398 173.96384172 -235.5 177.5 C-231.00550259 182.65381952 -226.61560278 187.87190245 -222.3125 193.1875 C-219.57012363 196.52282262 -216.75818765 199.79341559 -213.9375 203.0625 C-209.15583619 208.6066228 -204.51575901 214.23576644 -200 220 C-195.93504424 216.17031499 -192.25135849 212.16554029 -188.75 207.8125 C-185.46679097 203.73082347 -182.06761726 199.82984178 -178.5 196 C-174.21016838 191.39023112 -170.1958729 186.62214512 -166.24609375 181.71484375 C-163.11832821 177.93432714 -159.78726117 174.35519125 -156.46484375 170.74609375 C-154.07292703 168.08124834 -151.80745116 165.35168175 -149.5625 162.5625 C-145.90493736 158.02763839 -142.05382973 153.74463817 -138.08837891 149.48291016 C-134.28601193 145.37220724 -130.75729408 141.07724416 -127.24609375 136.71484375 C-124.11832821 132.93432714 -120.78726117 129.35519125 -117.46484375 125.74609375 C-115.07292703 123.08124834 -112.80745116 120.35168175 -110.5625 117.5625 C-106.90428985 113.02683557 -103.05257035 108.7429883 -99.08618164 104.48071289 C-96.09573 101.24806025 -93.26220993 97.93303234 -90.5 94.5 C-87.30068278 90.52370574 -83.97415055 86.73331702 -80.5 83 C-76.2104224 78.38998361 -72.19589103 73.62216764 -68.24609375 68.71484375 C-65.11832821 64.93432714 -61.78726117 61.35519125 -58.46484375 57.74609375 C-56.07292703 55.08124834 -53.80745116 52.35168175 -51.5625 49.5625 C-47.90493736 45.02763839 -44.05382973 40.74463817 -40.08837891 36.48291016 C-36.2892159 32.37567101 -32.76370654 28.08398898 -29.25390625 23.7265625 C-26.08514485 19.89329481 -22.73228897 16.24311851 -19.36328125 12.5859375 C-16.6647194 9.63313098 -14.0563281 6.61202411 -11.47265625 3.55859375 C-7.83294615 -0.29351322 -5.09594149 -0.43185945 0 0 Z " fill="#01AFEF" transform="translate(403,21)"/>
</svg>
