<?xml version="1.0" encoding="UTF-8"?>
<svg version="1.1" xmlns="http://www.w3.org/2000/svg" width="241" height="297">
<path d="M0 0 C79.53 0 159.06 0 241 0 C241 98.01 241 196.02 241 297 C161.47 297 81.94 297 0 297 C0 198.99 0 100.98 0 0 Z " fill="rgba(0,0,0,0.0)" transform="translate(0,0)"/>
<path d="M0 0 C6.6 0 13.2 0 20 0 C29.45126782 16.91414503 38.18111197 34.14068828 46.78637695 51.49371338 C49.51462067 56.99417857 52.24876502 62.49170418 54.98547935 67.98795891 C55.92176616 69.87050061 56.85520828 71.7544304 57.7882843 73.63856506 C58.3696666 74.80786057 58.95104889 75.97715607 59.55004883 77.18188477 C60.11084137 78.31304718 60.67163391 79.44420959 61.24942017 80.60964966 C62.463361 82.96069053 63.69762727 85.23777705 65.02963257 87.51803589 C65.68074005 88.64766754 66.33184753 89.77729919 67.00268555 90.94116211 C67.60042282 91.93965683 68.1981601 92.93815155 68.81401062 93.96690369 C70.54828268 98.40219989 69.7875358 101.83541943 68.1877594 106.23248291 C67.86484421 106.87022644 67.54192902 107.50796997 67.20922852 108.16503906 C66.84116592 108.90401428 66.47310333 109.6429895 66.09388733 110.40435791 C65.49247169 111.57318512 65.49247169 111.57318512 64.87890625 112.765625 C64.46011703 113.59850037 64.04132782 114.43137573 63.60984802 115.28948975 C62.27006025 117.9478286 60.91639113 120.59882138 59.5625 123.25 C58.68726769 124.98392939 57.81291139 126.71830126 56.93945312 128.453125 C52.68580665 136.87887745 48.35300058 145.25956636 43.9375 153.6015625 C38.94616914 163.03178279 34.17572684 172.56567915 29.4375 182.125 C27.85516279 185.31625237 26.27014908 188.50615555 24.68359375 191.6953125 C24.14779945 192.7793486 24.14779945 192.7793486 23.60118103 193.88528442 C21.11270581 198.88729419 21.11270581 198.88729419 20 200 C18.5112814 200.08669432 17.018555 200.10703494 15.52734375 200.09765625 C14.62822266 200.09443359 13.72910156 200.09121094 12.80273438 200.08789062 C11.85720703 200.07951172 10.91167969 200.07113281 9.9375 200.0625 C8.98810547 200.05798828 8.03871094 200.05347656 7.06054688 200.04882812 C4.70696935 200.0370011 2.35351523 200.02052025 0 200 C1.35971343 195.61517171 3.0667581 191.62075773 5.125 187.51953125 C5.58459106 186.60103645 5.58459106 186.60103645 6.0534668 185.66398621 C6.70383204 184.36626552 7.3561323 183.06951298 8.01025391 181.77368164 C8.97351331 179.86498337 9.93068105 177.95333934 10.88671875 176.04101562 C14.43482352 168.96512931 18.07021715 161.93936386 21.76953125 154.94140625 C27.00938088 145.02236945 32.150001 135.0551146 37.20874023 125.04248047 C38.20871723 123.06960197 39.21441371 121.09961371 40.2253418 119.13232422 C41.70917944 116.2432315 43.17478932 113.34553962 44.63671875 110.4453125 C45.31923958 109.12975876 45.31923958 109.12975876 46.01554871 107.78762817 C46.42380386 106.96841888 46.83205902 106.14920959 47.25268555 105.30517578 C47.61557175 104.59193146 47.97845795 103.87868713 48.3523407 103.14382935 C49.83660267 98.23074562 47.15544529 93.9463072 44.97265625 89.6171875 C44.66484726 89.00344269 44.35703827 88.38969788 44.03990173 87.75735474 C43.05302057 85.7936982 42.05772733 83.83443711 41.0625 81.875 C40.42852533 80.613538 39.79505804 79.35182087 39.16210938 78.08984375 C35.59415032 70.99871718 31.93322737 63.96067413 28.21875 56.9453125 C22.96607131 47.01429004 17.91643069 36.9852109 12.90112305 26.93261719 C11.41041993 23.94574049 9.91533472 20.96108356 8.41992188 17.9765625 C7.46588861 16.06783688 6.51210277 14.15898756 5.55859375 12.25 C4.89155678 10.9189624 4.89155678 10.9189624 4.21104431 9.56103516 C3.80294022 8.7416748 3.39483612 7.92231445 2.97436523 7.078125 C2.43669777 6.00159668 2.43669777 6.00159668 1.88816833 4.90332031 C1 3 1 3 0 0 Z " fill="#03AFEF" transform="translate(128,38)"/>
<path d="M0 0 C6.93 0 13.86 0 21 0 C24.18945548 6.20733602 27.37741107 12.41542391 30.5625 18.625 C31.03719727 19.55038574 31.51189453 20.47577148 32.00097656 21.42919922 C38.84876755 34.78447516 45.63604471 48.16727985 52.29125977 61.61962891 C53.12161743 63.2929126 53.12161743 63.2929126 53.96875 65 C54.47921875 66.03125 54.9896875 67.0625 55.515625 68.125 C57.266244 71.51567258 59.19448012 74.77457132 61.23242188 78 C62.69162545 81.80209787 61.1658722 84.62672354 59.57641602 88.20361328 C58.97515645 89.41230575 58.36726179 90.617713 57.75390625 91.8203125 C57.42743607 92.47174225 57.10096588 93.123172 56.76460266 93.79434204 C55.70326931 95.90766207 54.63313431 98.01637884 53.5625 100.125 C52.82339254 101.59130107 52.0846248 103.05777342 51.34619141 104.52441406 C47.23157978 112.68017425 43.05090809 120.79749996 38.75073242 128.85717773 C32.59447641 140.44611208 26.83785535 152.24858224 21 164 C14.07 164 7.14 164 0 164 C1.29001436 160.12995693 2.2910852 157.17877675 4.15234375 153.71875 C4.58973877 152.89552246 5.02713379 152.07229492 5.4777832 151.22412109 C5.95948975 150.32516113 6.44119629 149.42620117 6.9375 148.5 C13.58792752 135.93773164 19.91920967 123.22254121 26.23608398 110.49023438 C27.01805681 108.91796398 27.80003905 107.34569826 28.58203125 105.7734375 C29.14400459 104.63699799 29.14400459 104.63699799 29.71733093 103.4776001 C31.45268381 99.99143347 33.22597262 96.55028911 35.16552734 93.17285156 C35.81602051 92.03557617 36.46651367 90.89830078 37.13671875 89.7265625 C38.0042981 88.26984131 38.0042981 88.26984131 38.8894043 86.78369141 C40.53547237 82.65784657 39.85122717 80.02368661 38.15290833 75.98614502 C37.03810327 73.59472135 35.85995641 71.24445009 34.66015625 68.89453125 C34.21917099 68.01584885 33.77818573 67.13716644 33.32383728 66.2318573 C31.91084642 63.42157668 30.48667666 60.61712543 29.0625 57.8125 C28.13927868 55.97756319 27.21674642 54.14227953 26.29492188 52.30664062 C21.43295672 42.64859425 16.49121589 33.03650698 11.39942932 23.49739075 C7.30645551 15.79735232 3.65404116 7.91708918 0 0 Z " fill="#6FC6EA" transform="translate(81,56)"/>
<path d="M0 0 C6.93 0 13.86 0 21 0 C29.53166821 16.59538989 29.53166821 16.59538989 33.07104492 23.51733398 C33.75139046 24.84786552 33.75139046 24.84786552 34.44548035 26.20527649 C35.35640379 27.98686904 36.26722135 29.76851572 37.17793274 31.55021667 C39.69706774 36.47318015 42.24023395 41.38194668 44.8125 46.27734375 C45.81259121 48.20568187 46.81260105 50.13406219 47.8125 52.0625 C48.49469604 53.332146 48.49469604 53.332146 49.19067383 54.62744141 C49.58794678 55.4013623 49.98521973 56.1752832 50.39453125 56.97265625 C50.73331299 57.61468994 51.07209473 58.25672363 51.42114258 58.91821289 C52.79393514 63.85528677 50.62303343 68.24754348 48.41015625 72.60546875 C47.87793457 73.66217773 47.34571289 74.71888672 46.79736328 75.80761719 C46.2248584 76.92297852 45.65235352 78.03833984 45.0625 79.1875 C44.47710449 80.34282227 43.89170898 81.49814453 43.28857422 82.68847656 C39.39869277 90.34108452 35.4359537 97.95480308 31.41088867 105.53710938 C27.8209985 112.30121038 24.39507528 119.13604345 21 126 C14.07 126 7.14 126 0 126 C1.40191208 121.79426376 2.73058876 118.29126427 4.6875 114.39453125 C5.21666016 113.3375 5.74582031 112.28046875 6.29101562 111.19140625 C6.85498047 110.07636719 7.41894531 108.96132812 8 107.8125 C8.57943359 106.66007812 9.15886719 105.50765625 9.75585938 104.3203125 C13.27380832 97.3463367 16.85107368 90.40626742 20.5 83.5 C20.90516846 82.73059082 21.31033691 81.96118164 21.7277832 81.16845703 C23.37957501 78.03769113 25.04448542 74.91980788 26.76171875 71.82421875 C27.23222656 70.95410156 27.70273437 70.08398438 28.1875 69.1875 C28.76564453 68.15689453 28.76564453 68.15689453 29.35546875 67.10546875 C31.36347696 60.54597527 26.70783039 53.88986818 23.828125 48.23046875 C23.30869324 47.19489334 22.78926147 46.15931793 22.25408936 45.09236145 C20.5935112 41.78692995 18.9216968 38.48731971 17.25 35.1875 C16.13993362 32.97886298 15.03055123 30.76988204 13.921875 28.56054688 C12.84957296 26.42937814 11.77667535 24.29850894 10.703125 22.16796875 C10.20709778 21.18330124 9.71107056 20.19863373 9.20001221 19.18412781 C6.55625183 13.96776203 3.8278155 8.83071775 0.89324951 3.7714386 C0 2 0 2 0 0 Z " fill="#E6E7E8" transform="translate(35,75)"/>
</svg>
