<svg xmlns="http://www.w3.org/2000/svg" viewBox="0 0 142 210">
<path fill="#BF945D" d="M16 39c-12,4 -17,12 -16,26l0 145 42 0 0 -197c-10,5 -24,13 -26,26zm55 -39c-7,3 -14,6 -21,9l0 201 41 0 0 -201c-5,-2 -20,-9 -20,-9zm6 169c3,1 6,4 6,10 0,14 -14,12 -24,12l0 -42 10 0c4,0 13,0 13,10 0,5 -2,8 -4,10zm-12 -17l0 16c7,0 11,1 11,-8 0,-8 -5,-8 -11,-8zm11 27c0,-9 -4,-8 -11,-8l0 17c6,0 11,1 11,-9zm49 -140c12,4 17,12 16,26l0 145 -42 0 0 -197c10,5 24,13 26,26zm4 110l0 29c0,13 -14,13 -14,1 0,-10 0,-19 0,-29l-6 0c0,10 0,21 0,31 0,7 4,11 12,12 7,0 11,-4 11,-11 0,-10 0,-21 0,-31l-3 0zm-101 35l0 -35 4 0 0 42 -7 0 -13 -35 0 35 -4 0 0 -42c2,0 5,0 7,0l13 35z"/>
</svg>