<?xml version="1.0" encoding="UTF-8"?>
<!DOCTYPE svg PUBLIC "-//W3C//DTD SVG 1.0//EN" "http://www.w3.org/TR/2001/REC-SVG-20010904/DTD/svg10.dtd">
<!-- Creator: CorelDRAW -->
<svg xmlns="http://www.w3.org/2000/svg" xml:space="preserve" width="210mm" height="297mm" version="1.0" shape-rendering="geometricPrecision" text-rendering="geometricPrecision" image-rendering="optimizeQuality" fill-rule="evenodd" clip-rule="evenodd"
viewBox="0 0 210 297"
 xmlns:xlink="http://www.w3.org/1999/xlink"
 xmlns:xodm="http://www.corel.com/coreldraw/odm/2003">
 <g id="Слой_x0020_1">
  <metadata id="CorelCorpID_0Corel-Layer"/>
  <path id="logo.svg" fill="#BF945D" fill-rule="nonzero" d="M340 157l0 38 -11 0 0 -52c3,1 6,3 7,7 0,0 5,1 4,7zm-4 30c0,3 -3,3 -3,0 0,-3 0,-5 0,-8l-2 0c0,3 0,6 0,8 0,2 1,3 3,3 2,0 3,-1 3,-3 0,-3 0,-6 0,-9l-1 0 0 8z"/>
  <path id="logo.svg_0" fill="#BF945D" fill-rule="nonzero" d="M315 142l0 53 11 0 0 -53c-1,-1 -5,-2 -5,-2 0,0 -4,2 -6,2zm7 42c1,0 2,1 2,3 0,4 -4,3 -6,3l0 -11 3 0c1,0 3,0 3,3 0,1 0,3 -1,3zm0 3c0,-2 -1,-2 -3,-2l0 4c2,0 3,0 3,-2l0 0zm-3 -3c2,0 3,0 3,-2 0,-2 -1,-2 -3,-2l0 4z"/>
  <path id="logo.svg_1" fill="#BF945D" fill-rule="nonzero" d="M302 157l0 38 11 0 0 -52c-3,1 -6,3 -7,7 0,0 -5,1 -4,7zm7 31l0 -9 1 0 0 11 -2 0 -3 -9 0 9 -1 0 0 -11c1,0 1,0 2,0l3 9z"/>
 </g>
</svg>
